<svg width="556" height="626" viewBox="0 0 556 626" fill="none" xmlns="http://www.w3.org/2000/svg">
<path d="M555.512 312.755C555.512 485.249 415.656 625.179 243.162 625.179H26.8084L123.553 425.232H241.192C285.375 425.232 447.497 404.936 531.002 191.4C531.55 192.647 532.074 193.893 532.622 195.165C547.383 231.469 555.512 271.164 555.512 312.755Z" fill="url(#paint0_linear_179_17750)"/>
<path d="M531.001 191.428C517.586 409.078 285.375 425.26 241.191 425.26C258.62 425.26 275.177 421.321 289.838 414.264C290.461 413.915 291.085 413.641 291.708 413.367C328.461 394.866 353.669 356.667 353.669 312.758C353.669 303.731 352.697 295.154 350.727 286.726C352.697 274.209 346.413 262.266 346.413 249.126C346.413 134.678 268.943 41.3245 163.322 12.9743C142.751 7.43896 128.24 0.3078 105.899 0.3078H243.161C372.644 0.3078 483.701 79.0747 531.001 191.403V191.428Z" fill="url(#paint1_linear_179_17750)"/>
<path d="M353.717 248.126C353.717 261.241 352.67 274.182 350.7 286.774C338.981 237.155 294.448 200.227 241.214 200.227H123.55L26.8303 0.330185H105.921C128.237 0.330185 149.905 3.2724 170.451 8.78285C276.072 37.1828 353.717 133.603 353.717 248.126Z" fill="url(#paint2_linear_179_17750)"/>
<path d="M0.599823 312.735L123.55 425.263V200.232L0.599823 312.735Z" fill="url(#paint3_linear_179_17750)"/>
<defs>
<linearGradient id="paint0_linear_179_17750" x1="718.905" y1="232.242" x2="-13.7345" y2="667.991" gradientUnits="userSpaceOnUse">
<stop stop-color="#472BCB"/>
<stop offset="1" stop-color="#9747FF"/>
</linearGradient>
<linearGradient id="paint1_linear_179_17750" x1="87.9711" y1="-78.4342" x2="580.57" y2="545.642" gradientUnits="userSpaceOnUse">
<stop stop-color="#6F53F3"/>
<stop offset="0.18" stop-color="#6F53F3"/>
<stop offset="0.34" stop-color="#6F53F3"/>
<stop offset="0.5" stop-color="#6F53F3"/>
<stop offset="0.65" stop-color="#6F53F3"/>
<stop offset="0.79" stop-color="#6F53F3"/>
<stop offset="0.93" stop-color="#6F53F3"/>
<stop offset="1" stop-color="#6F53F3"/>
</linearGradient>
<linearGradient id="paint2_linear_179_17750" x1="-75.2501" y1="-1.39027" x2="534.016" y2="283.283" gradientUnits="userSpaceOnUse">
<stop stop-color="#6644DA"/>
<stop offset="0.14" stop-color="#6644DA"/>
<stop offset="0.24" stop-color="#6644DA"/>
<stop offset="0.49" stop-color="#6644DA"/>
<stop offset="0.68" stop-color="#6644DA"/>
<stop offset="0.87" stop-color="#6644DA"/>
<stop offset="1" stop-color="#6644DA"/>
</linearGradient>
<linearGradient id="paint3_linear_179_17750" x1="-9.74785" y1="250.474" x2="223.885" y2="359.636" gradientUnits="userSpaceOnUse">
<stop stop-color="#6644DA"/>
<stop offset="0.14" stop-color="#6644DA"/>
<stop offset="0.31" stop-color="#6F53F3"/>
<stop offset="0.49" stop-color="#6F53F3"/>
<stop offset="0.68" stop-color="#6F53F3"/>
<stop offset="0.87" stop-color="#6F53F3"/>
<stop offset="1" stop-color="#0956A6"/>
<stop offset="1.0001" stop-color="#6F53F3"/>
</linearGradient>
</defs>
</svg>
